<svg width="24" height="24" viewBox="0 0 24 24" fill="none" xmlns="http://www.w3.org/2000/svg">
<path d="M3.53 2.47C3.38782 2.33752 3.19978 2.2654 3.00548 2.26882C2.81118 2.27225 2.62579 2.35096 2.48838 2.48838C2.35096 2.62579 2.27225 2.81118 2.26882 3.00548C2.2654 3.19978 2.33752 3.38782 2.47 3.53L20.47 21.53C20.5387 21.6037 20.6215 21.6628 20.7135 21.7038C20.8055 21.7448 20.9048 21.7668 21.0055 21.7686C21.1062 21.7704 21.2062 21.7518 21.2996 21.7141C21.393 21.6764 21.4778 21.6203 21.549 21.549C21.6203 21.4778 21.6764 21.393 21.7141 21.2996C21.7518 21.2062 21.7704 21.1062 21.7686 21.0055C21.7668 20.9048 21.7448 20.8055 21.7038 20.7135C21.6628 20.6215 21.6037 20.5387 21.53 20.47L3.53 2.47ZM22.676 12.553C22.137 14.1705 21.2373 15.6443 20.045 16.863L16.946 13.764C17.2803 12.8279 17.3421 11.8162 17.124 10.8464C16.906 9.8766 16.4171 8.98864 15.7142 8.28578C15.0114 7.58292 14.1234 7.09404 13.1536 6.87598C12.1838 6.65792 11.1721 6.71966 10.236 7.054L7.759 4.577C9.10602 4.02896 10.5468 3.74808 12.001 3.75C16.971 3.75 21.186 6.973 22.676 11.44C22.796 11.802 22.796 12.192 22.676 12.553Z" fill="black"/>
<path d="M15.75 12C15.75 12.18 15.737 12.357 15.713 12.53L11.469 8.28699C12.001 8.2109 12.5431 8.25003 13.0586 8.40174C13.5742 8.55344 14.0511 8.81418 14.457 9.16629C14.863 9.5184 15.1886 9.95365 15.4116 10.4426C15.6347 10.9315 15.7501 11.4626 15.75 12ZM12.53 15.713L8.287 11.469C8.20456 12.0455 8.2575 12.6332 8.44165 13.1857C8.62579 13.7381 8.93607 14.2401 9.34789 14.6519C9.75972 15.0636 10.2618 15.3737 10.8143 15.5577C11.3668 15.7418 11.9545 15.7946 12.531 15.712L12.53 15.713Z" fill="black"/>
<path d="M6.75 12C6.75 11.381 6.857 10.787 7.054 10.236L3.954 7.136C2.7621 8.35484 1.86279 9.82862 1.324 11.446C1.204 11.808 1.204 12.198 1.324 12.56C2.813 17.027 7.028 20.25 11.999 20.25C13.499 20.25 14.932 19.956 16.241 19.423L13.764 16.946C12.9717 17.2287 12.123 17.3168 11.2895 17.2029C10.4559 17.0891 9.66199 16.7766 8.97448 16.2918C8.28697 15.807 7.72602 15.164 7.3389 14.4171C6.95177 13.6702 6.7498 12.8413 6.75 12Z" fill="black"/>
</svg>
